# xmcd
#
# Track frame offsets: 
#        150
#        5627
#        23084
#        41059
#        55720
#        76509
#        89291
#        98208
#        106874
#        121085
#        139162
#        151971
#        174516
#        189847
#
# Disc length: 2729 seconds
#
# Revision: 0
# Processed by: cddbd v1.5.2PL0 Copyright (c) Steve Scherf et al.
# Submitted via: ExactAudioCopy v1.0b2
#
DISCID=9c0aa70e
DTITLE=JINBO - afterwork
DYEAR=2009
DGENRE=Soul
TTITLE0=I 27
TTITLE1=U R
TTITLE2=너없는
TTITLE3=Move On, Are You There?
TTITLE4=One Night Stay,In My Room
TTITLE5=걱정하지마
TTITLE6=Stalkin'
TTITLE7=Lovin'
TTITLE8=딱한시간만
TTITLE9=Tango Rain
TTITLE10=Night Cruisin'
TTITLE11=어지러워
TTITLE12=달아달아
TTITLE13=Bye 27
EXTD=
EXTT0=
EXTT1=
EXTT2=
EXTT3=
EXTT4=
EXTT5=
EXTT6=
EXTT7=
EXTT8=
EXTT9=
EXTT10=
EXTT11=
EXTT12=
EXTT13=
PLAYORDER=
